<svg width="24" height="24" viewBox="0 0 24 24" fill="none" xmlns="http://www.w3.org/2000/svg">
<path fill-rule="evenodd" clip-rule="evenodd" d="M16.0002 14.0318V15.5519C17.4627 15.8455 18.4003 16.2951 18.4003 16.7999C18.4003 17.6847 15.5354 18.3999 12.0002 18.3999C8.46489 18.3999 5.60003 17.6847 5.60003 16.7999C5.60003 16.2951 6.53845 15.8455 8.00008 15.5519V14.0318C5.61123 14.5846 4 15.6159 4 16.7999C4 18.5679 7.58167 19.9999 12.0002 19.9999C16.4186 19.9999 20.0003 18.5679 20.0003 16.7999C20.0003 15.6159 18.3891 14.5846 16.0002 14.0318Z" fill="white"/>
<path fill-rule="evenodd" clip-rule="evenodd" d="M10.4001 8.8001C10.4001 7.91688 11.1169 7.20006 12.0002 7.20006C12.8834 7.20006 13.6002 7.91688 13.6002 8.8001C13.6002 9.68331 12.8834 10.4001 12.0002 10.4001C11.1169 10.4001 10.4001 9.68331 10.4001 8.8001ZM16.8003 8.8001C16.8003 6.14964 14.6506 4 12.0002 4C9.34971 4 7.20007 6.14964 7.20007 8.8001C7.20007 12.0002 12.0002 17.6003 12.0002 17.6003C12.0002 17.6003 16.8003 12.0002 16.8003 8.8001Z" fill="white"/>
</svg>
